<?xml version="1.0" encoding="UTF-8"?>
<svg id="_Слой_2" data-name="Слой 2" xmlns="http://www.w3.org/2000/svg" viewBox="0 0 230 191">
  <path d="M62.19,15.7c-3.7,1.8-7.4,7.6-19.8,31.1-6.3,11.9-6.6,12.9-7,20.7-.4,7.5-.2,8.7,2.1,12.7l2.6,4.4-3.4,7.9c-3.8,8.7-4.5,16-2.1,21.8,1.3,3.1,1.2,3.7-1.9,10.1-9.2,18.8-6,34.4,8.5,42.1,3.3,1.8,7.6,1.9,80.5,2.2,66.5.2,77.3.1,79-1.2,1.8-1.3,1.9-1.7.6-3.8-5.7-9.1-6.5-11.3-6.5-17.7,0-7.6,1.5-12.9,5.1-17.1,2.7-3.3,2.5-6.5-.6-7.3-3-.7-6.4-9.2-6.4-15.7.1-6.6,2.2-11.4,6.6-15.2,2.8-2.3,3-2.9,1.9-4.5-2.9-4.1-6.2-12-6.2-14.8,0-4.8,1.9-10.2,4.6-13.5,1.4-1.7,2.4-3.7,2.1-4.5-.3-.7-6-9.4-12.6-19.3-9.8-14.7-12.6-18.2-15.2-19.1-2.2-.8-19.5-1.1-55.8-1.1-48.1,0-52.9.2-56.1,1.8ZM171.69,19.5c1.4.6,21.5,29.4,21.5,30.9,0,.3-31.7.5-70.5.5-59.4,0-71.1.2-74,1.4-1.9.8-3.5,1.2-3.5.8.1-.4,4-7.7,8.8-16.2,5.7-10.2,9.5-15.9,11.2-16.7,1.9-1,14.5-1.3,53.7-1.3,28.1,0,51.9.3,52.8.6ZM192.59,59.4c-1,1.5-1.9,5.5-2.2,9.4-.3,5.4,0,7.7,1.6,11.4l2.1,4.7h-71.2c-67.1,0-71.4-.1-74.6-1.8-7.6-4.1-9.4-15.1-3.5-21.4,1.6-1.6,3.8-3.4,4.9-3.8,1.1-.5,34.1-.9,73.3-.9l71.2-.1-1.6,2.5ZM45.19,87.3c0,.3-.4.8-1,1.1-.5.3-1,.1-1-.4,0-.6.5-1.1,1-1.1.6,0,1,.2,1,.4ZM191.19,91.2c0,.2-.9,2.2-2,4.5-2.6,5.4-2.7,15.1-.1,20.9l1.9,4.2-5.1.6c-2.9.3-35,.5-71.4.3-65.1-.3-66.2-.3-69-2.4-8.8-6.4-8.3-20.8.9-26.4,3.2-1.9,5.2-2,74.1-2,38.9,0,70.7.1,70.7.3ZM41.49,122.6c.7.6-2.1,3.2-3.6,3.3-.4,0-.3-.9.3-2,1.1-2.1,2.2-2.5,3.3-1.3ZM193.19,128.2c0,.7-.4,1.7-1,2.3-.5.5-1.7,3.8-2.6,7.3-1.8,7.2-1.3,13.1,1.7,20,1,2.4,1.9,4.5,1.9,4.7s-32.6.4-72.5.4c-63,0-73-.2-76.2-1.5-5-2.1-7.2-4.2-9.4-9-4.6-9.9.1-20.5,10.6-24.3,2-.7,26.9-1.1,75.3-1.1,58.6-.1,72.2.1,72.2,1.2Z"/>
  <path d="M76.19,31.8c-3.1,6.2-.6,10,2.8,4.1l1.7-3h75.5l1.6,2.5c.9,1.4,2.3,2.5,3,2.5,2.1,0,1.7-3.8-.7-7.1l-2-2.9h-79.9l-2,3.9Z"/>
  <path d="M60.19,65.5c-1.4,3.6-1.2,8.7.3,10.8,2.5,3.5,3.9,1.4,4.2-6.2.3-6.5.1-7.2-1.6-7.2-1.2,0-2.3,1-2.9,2.6Z"/>
  <path d="M73.79,63.8c-.4.5-.9,2.9-1.2,5.4-.7,4.9.9,9,3.2,8.5,2.1-.4,2.6-13.5.6-14.3-1.8-.7-2-.6-2.6.4Z"/>
  <path d="M64.19,106.4v2.5h96v-5h-96v2.5Z"/>
  <path d="M53.29,139c-1.4,4-1.4,11.4-.1,14,.6,1,1.9,1.9,3,1.9,1.7,0,1.8-.8,1.8-7.3-.1-3.9.1-8.1.3-9.2.3-1.4-.2-2.1-1.7-2.3-1.7-.2-2.4.5-3.3,2.9Z"/>
  <path d="M67.09,137.5c-1.9,2.3-1.9,13.5,0,15.7,2.9,3.5,3.6,1.9,3.6-7.5-.1-9.4-1-11.4-3.6-8.2Z"/>
</svg>