<?xml version="1.0" encoding="UTF-8"?>
<svg id="_Слой_1" xmlns="http://www.w3.org/2000/svg" version="1.1" viewBox="0 0 230 191">
  <!-- Generator: Adobe Illustrator 29.1.0, SVG Export Plug-In . SVG Version: 2.1.0 Build 142)  -->
  <path d="M85.1,29.3c-14.8,7.2-37.9,18.6-51.3,25.2-31.2,15.4-30.9,13.7-4.9,26.5l18.7,9.2v23.2c0,15.4.4,24.5,1.2,27.3,3.8,12.7,28.7,24.5,55.8,26.5,11.9.8,29.4-.3,38.7-2.4,18.2-4.2,32.7-12.8,36.9-21.8,2.3-5,2.4-5.9,2.4-28.9v-23.8l8-4c4.4-2.2,8.2-4,8.5-4s.5,10.8.5,23.9v23.9l-3,3c-3.6,3.6-4.1,9.5-1.1,13.3,1,1.3,1.6,2.8,1.5,3.4-.2.5-1.7,7.3-3.3,15-2.1,9.9-2.6,14.4-1.9,15.2,1.1,1.4,18.1,1.9,21.2.7,2.2-.8,2.1-2.2-1.5-18.4-2.7-12.7-2.9-14.3-1.6-15.8,3.7-4.1,2.3-13.2-2.2-14.7-2.1-.6-2.1-1-1.9-26.7l.3-26.2,7-3.7c12-6.5,14.4-4.7-42.9-33.3-34.2-17-51.2-25-54-25.3-3.6-.3-7.3,1.2-31.1,12.7h0ZM147.1,36.9c16.5,8.1,38.1,18.6,47.9,23.4l17.9,8.7-19.9,9.8c-10.9,5.3-32.9,16-48.8,23.7l-28.8,14-19.7-9.4c-44.1-21.1-77-37.3-77.1-38,0-1.3,93.7-46.7,96.5-46.8,1.2,0,15.6,6.6,32,14.6ZM84.8,108.3c20.6,9.9,30,13.9,31.6,13.5,1.2-.3,14.9-6.6,30.3-14,15.5-7.4,28.5-13.5,29-13.5,1.5,0,1.1,41.5-.5,45.3-6,14.4-40.4,24.9-71,21.8-18.6-1.8-35.5-7.7-44.1-15.2-6.3-5.6-6.5-6.5-6.5-30.4s.4-21.5.9-21.5,14.1,6.3,30.3,14ZM205.6,137.3c2.5,2.5,2.5,3.2.1,6.1-1.8,2.2-1.9,2.2-4.5.6-2.9-2-3.4-4.8-1-7.1,2-2.1,3-2,5.4.4ZM203.6,151.7c0,.3.9,5,2,10.6,2.7,13.8,2.9,13-3.1,13s-4.9-.9-4.6-2.8c.3-1.5,1.4-6.9,2.3-12,1-5,2.2-9.2,2.6-9.2s.8.2.8.4Z"/>
</svg>