<?xml version="1.0" encoding="UTF-8"?>
<svg id="_Слой_5" xmlns="http://www.w3.org/2000/svg" version="1.1" viewBox="0 0 230 191">
  <!-- Generator: Adobe Illustrator 29.1.0, SVG Export Plug-In . SVG Version: 2.1.0 Build 142)  -->
  <path d="M109.9,12.9c-11.9,2.9-23.4,10.4-29.5,19.3l-3.5,5-8.5.5c-10.6.7-19.1,4.3-27,11.5-7.2,6.6-16.1,23.4-18.5,35-2.6,12.4-.1,26,6.4,36.3,3.9,6.1,12.7,14.5,17.6,16.8l3.7,1.8-.6,7c-.4,3.9-2.2,11.4-4.2,17-1.9,5.5-3.8,10.8-4.1,11.7-.6,2.1,1.7,3.3,5,2.4,2.6-.6,24-14.6,31.3-20.5l5.1-4.1,5.9,2.7c5,2.4,7.2,2.8,14.4,2.7,7.1,0,9.5-.5,14.7-2.8,5.7-2.6,6.4-2.7,10-1.5,2.1.7,7.2,1.3,11.3,1.3,6,0,8.6-.5,13.1-2.6,6.8-3.1,13.1-8.6,16.6-14.5,1.4-2.5,3.2-4.3,4.2-4.3,4.1,0,14.1-6.3,19.9-12.4,8.3-8.9,11.4-16.7,12-30.3.3-8.4,0-11.4-1.7-17.1-5-16.5-18.5-29-35.2-32.6-1.8-.4-3.7-2.4-6.3-6.5-10.7-17.4-32.5-26.5-52.2-21.7h0ZM131,19c11.6,3.1,21.9,11.1,28.2,22,2.6,4.4,3.4,5,7.4,5.7,12,2.1,23.3,11.3,29.3,23.8,2.9,6.1,3.1,7.2,3.1,18s-.3,12-2.7,17.3c-1.5,3.2-4.2,7.7-6,9.9-4,5.2-14,11.6-19,12.4-3.2.6-4.1,1.3-6.7,5.9-7.2,12.6-21.8,18.3-35.4,13.7l-5.9-2-6.1,3.2c-5.2,2.7-7.1,3.1-13.6,3.1s-8.5-.4-14.4-3.3c-3.8-1.9-7.2-3-7.9-2.6-.7.5-4.2,3.3-7.8,6.3-5.9,5-20.7,15.1-22.1,15.1s.2-2.5,1.2-5.6c2.6-7.7,4.1-17.1,3.7-22.4-.3-4.2-.6-4.7-4.9-7-7.4-4-11.4-7.5-15.3-13.5-6.1-9.1-7.8-15.4-7.4-27.1.3-9.2.7-10.8,3.9-17.5,2-4.1,4.2-8.8,4.9-10.6,1.9-4.9,10.1-12.8,17.1-16.5,5.9-3,7.1-3.3,15.9-3.3h9.5c0,0,3.7-5.6,3.7-5.6,10.8-16.3,29.5-24,47.4-19.4h0Z"/>
  <path d="M83.1,87.4c-3.2,3.5-1.5,8.2,2.8,8.2s2.6-.5,3.3-1.2c1.9-1.9,1.5-6.6-.7-7.8-2.7-1.4-3.5-1.3-5.4.8h0Z"/>
  <path d="M111.6,87.2c-3.9,2.7-2.3,8.4,2.3,8.4s2.6-.5,3.3-1.2c1.9-1.9,1.5-6.6-.7-7.8-2.5-1.3-2.2-1.3-4.9.6h0Z"/>
  <path d="M139.7,87.2c-2.4,1.7-2.9,5.3-1,7.2s5.5,1.4,7.2-.9c1.6-2.3,1.2-4.7-1.2-6.7-2-1.5-2.3-1.5-5,.4h0Z"/>
</svg>