<?xml version="1.0" encoding="UTF-8"?>
<svg id="_Слой_4" data-name="Слой 4" xmlns="http://www.w3.org/2000/svg" viewBox="0 0 230 191">
  <path d="M27.38,17.82c-1.1.4-3.1,2-4.5,3.5l-2.5,2.7-.3,62.8-.2,62.9-9.8.3-9.7.3-.3,5c-.5,7.6,1.2,12.1,6,15.5l4.1,3h208.2l3.8-2.5c2-1.4,4.4-3.9,5.2-5.5,2.2-4.2,3-11.3,1.6-13.9-1.1-1.9-2-2.1-10.6-2.1h-9.5v-62c0-68.9.2-66.8-6.5-69.6-2.9-1.2-17.1-1.4-88.2-1.3-46.6,0-85.7.4-86.8.9ZM201.28,24.42c1.4,1.4,1.6,8.5,1.6,63.5v61.9h-66.9l-1.6,3-1.6,3h-36.8l-1.6-3-1.6-3H25.88v-61.7c0-56,.2-61.8,1.7-63.5s5.5-1.8,86.9-1.8c76.2,0,85.4.2,86.8,1.6ZM91.68,158.82l3,3h40l2.5-3,2.6-3h83.1v3.5c0,2.5-.8,4.4-2.5,6l-2.4,2.5H11.18l-2.7-2.5c-1.9-1.7-2.6-3.4-2.6-6v-3.5h82.8l3,3Z"/>
  <path d="M121.28,64.62c-1.8,1.1-17.6,42.2-17,43.9.3.8,1.5,1.3,2.7,1.1,1.8-.2,3.6-3.9,10.6-21.6,6.6-16.9,8.2-21.7,7.2-22.8-1.3-1.6-1.9-1.7-3.5-.6Z"/>
  <path d="M78.88,76.92c-8.6,6-11.5,8.5-11.5,10.2,0,1.6,3,4.2,11.9,10.5,11.8,8.3,15.1,9.4,14.4,5-.2-1.5-3.2-4.3-9.3-8.5-4.9-3.4-9.1-6.6-9.2-7-.1-.5,3.9-3.6,9-6.9,7.3-4.9,9.2-6.6,9.2-8.5,0-1.3-.7-2.5-1.5-2.6s-6.7,3.4-13,7.8Z"/>
  <path d="M135.88,70.32c-.6.8-.9,1.9-.6,2.4.4.5,5,4,10.2,7.7,5.3,3.6,9.2,7,8.7,7.4-.4.4-5,3.5-10,7-5.1,3.4-9.3,6.8-9.3,7.5,0,1.9,2.7,3.8,4.2,2.9.7-.4,6.4-4.3,12.6-8.7,7.4-5.2,11.2-8.5,11-9.5-.3-1.6-22.4-18.1-24.4-18.1-.6-.1-1.7.6-2.4,1.4Z"/>
</svg>