<?xml version="1.0" encoding="UTF-8"?>
<svg id="_Слой_3" xmlns="http://www.w3.org/2000/svg" version="1.1" viewBox="0 0 230 191">
  <!-- Generator: Adobe Illustrator 29.1.0, SVG Export Plug-In . SVG Version: 2.1.0 Build 142)  -->
  <path d="M39.2,2.4l-2.8,2.4-.3,88.9c-.1,48.8,0,89.8.3,91.1.3,1.2,1.4,3.1,2.5,4.2,2,2,3.6,2,67.9,2s66.7-.3,67.6-.6c3.8-1.5,4.5-5.4,4.5-27.4s-.2-22.7-4.2-19.6c-1.6,1.2-1.8,3.4-1.8,20.8s-.3,19.7-1.2,20.6-8.1,1.2-26.3,1.2-25.4-.3-25.8-.6c-.3-.3,2.7-3,6.6-5.9,11.5-8.4,12.3-9.4,13.1-15.5.4-3,1.4-6.5,2.2-7.7,1.1-1.7,1.1-2.8.3-4.7-1-2.2-.6-3.5,3.7-10.8,12.8-22.2,29.7-46,44.8-63.1,6-6.9,6.7-8.1,5.4-9.3-.8-.8-2.1-1.2-3-.9-1.8.7-14.8,15.5-24.9,28.4-6.9,8.9-17.4,24.4-29.2,42.8-3.2,5-5.3,7.3-6.6,7.3s-2.2.8-2.5,1.8c-.4,1-3.5,3.9-7,6.4l-6.3,4.6-.6,8.3c-.4,4.6-1.3,10.6-2,13.4l-1.2,5-33.7.3c-29.6.2-33.8,0-35.2-1.4s-1.6-10.5-1.6-88.8.3-87.5,1.2-88.4,12.5-1.2,46-1.2h44.8v16.9c0,16.5,0,17.1,2.4,19.8l2.4,2.8,17.7.5c9.9.3,18.4,0,19.3-.4,1.9-1,3.2-2.6,3.2-4s-9.1-10.1-20.2-21.3L138.5,0H42s-2.8,2.4-2.8,2.4ZM156.3,39.8c-9.2.2-14.1,0-15-.9-1.1-.9-1.4-4.4-1.4-15.3v-14.1l15,15,15,15-13.6.3ZM134.9,153c1.6.9,1.8,1.5,1,3.6-.6,1.4-1,4.5-1,6.9,0,4-.3,4.5-5,7.9-2.8,2-5.3,3.6-5.6,3.6s.7-2.2,2.3-5c2.1-3.7,2.5-5.2,1.6-6.1-1.6-1.6-3-.5-5.3,4.2-1.1,2.1-2.3,3.9-2.5,3.9-.3,0-.5-2.3-.5-5,0-5.4,0-5.6,8-11.5,5.3-4,4.6-3.8,7-2.5h0Z"/>
  <path d="M206.2,41.5c-12.7,3.5-25,10.6-37.3,21.8-9.2,8.4-12.2,12.4-11.4,14.9.4,1.3.1,1.6-.9,1.2-4.1-1.5-14.8,16.7-18.7,32-2,8.1-2.6,16.1-1.2,17,1.8,1.1,3.2-1.4,4.6-8,3.3-15.5,12.5-34.6,17.8-36.9,1.3-.6,2.4-2,2.6-3.2,1.1-7.5,27.1-27.3,42.5-32.3,5.2-1.7,14.7-2.8,15.3-1.9.9,1.5-2.5,13.7-5.5,20.1-3.8,8-8.2,13.3-13.2,15.8-4.5,2.3-4.7,3.2-1.8,5.9l2.2,2-4.1,6.9c-4.8,8-11.4,14.4-16.6,16.2-2.9.9-3.6,1.6-3.1,2.9,1.9,4.4,1.6,4.9-4.4,9.7-3.3,2.7-9.7,6.9-14.3,9.4-14.3,7.8-9.2,10.4,5.8,2.9,10.9-5.4,21.4-15.1,21.4-19.7s.5-3.2,1.5-3.2c5.7,0,22-24.9,18.6-28.3-.6-.6.6-2.1,3.2-4.1,4.6-3.5,10.4-13.4,13.9-23.6,2.6-7.8,3-16.6.8-18s-11.7-1.1-17.7.5Z"/>
  <path d="M64.2,44.7c-1.8.7-1.6,5,.3,5.7.9.3,10.9.6,22.4.6s21.5-.3,22.4-.6,1.6-1.6,1.6-2.9-.7-2.6-1.6-2.9c-1.9-.7-43.3-.7-45.1.1Z"/>
  <path d="M63.3,69.5c-.4.8-.4,2.2,0,3,.5,1.3,5.8,1.5,39.4,1.5s39.1-.2,40.2-1.5c1-1.2,1-1.8,0-3-1.1-1.3-6.8-1.5-40.2-1.5s-38.9.2-39.4,1.5Z"/>
  <path d="M63.3,94.5c-.4.8-.4,2.2,0,3,.5,1.3,5.1,1.5,32.9,1.5s34.7,0,34.7-4.2-1.9-1.8-33.5-1.8-33.6.2-34.1,1.5Z"/>
  <path d="M63.3,118.5c-.4.8-.4,2.2,0,3,.5,1.3,4.5,1.5,27.9,1.5s27.6-.2,28.7-1.5c1-1.2,1-1.8,0-3-1.1-1.3-5.5-1.5-28.7-1.5s-27.4.2-27.9,1.5Z"/>
</svg>