<?xml version="1.0" encoding="UTF-8"?>
<svg id="_Слой_1" xmlns="http://www.w3.org/2000/svg" version="1.1" viewBox="0 0 800 130">
  <!-- Generator: Adobe Illustrator 29.1.0, SVG Export Plug-In . SVG Version: 2.1.0 Build 142)  -->
  <defs>
    <style>
      .st0 {
        fill: #fefefe;
        isolation: isolate;
        opacity: .4;
      }
    </style>
  </defs>
  <path class="st0" d="M71.8,63h-27.2v-6.4c0-7.4.8-13.1,2.5-17.1s5.1-7.5,10.2-10.6c5.1-3.1,11.8-4.6,20-4.6s17.2,1.7,22.2,5.2,8,7.7,9,12.8,1.5,15.4,1.5,31.2v47.8h-28.2v-8.5c-1.8,3.4-4.1,6-6.8,7.7-2.8,1.7-6.1,2.6-10,2.6s-9.7-1.4-14-4.3c-4.2-2.9-6.3-9.1-6.3-18.7v-7.8c0-7.1,1.1-12,3.4-14.6s7.8-5.6,16.7-9c9.5-3.7,14.6-6.2,15.3-7.5.7-1.3,1-3.9,1-7.9s-.4-8.2-1.1-9.7-2-2.3-3.7-2.3-3.2.6-3.7,1.9c-.5,1.3-.7,4.6-.7,9.9v10h0ZM80.9,76c-4.6,3.4-7.3,6.2-8.1,8.5-.7,2.3-1.1,5.6-1.1,9.9s.3,8.1,1,9.6,1.9,2.1,3.8,2.1,3-.6,3.6-1.7c.6-1.1.8-4.1.8-8.9v-19.6h0Z"/>
  <path class="st0" d="M149.8,5.1v116.2h-29.9V5.1h29.9Z"/>
  <path class="st0" d="M190,5.1v15.2h-29.9V5.1h29.9ZM190,26.1v95.2h-29.9V26.1h29.9Z"/>
  <path class="st0" d="M259.7,56.5h-25.7v-5.2c0-4.4-.2-7.2-.8-8.4s-1.8-1.8-3.8-1.8-2.9.5-3.7,1.6-1.2,2.7-1.2,4.8.2,5.1.6,6.4,1.6,2.9,3.7,4.5,6.2,4,12.5,7.1c8.4,4.1,13.9,8,16.6,11.6s4,8.9,4,15.9-1,13.6-3,17.6-5.4,7-10.1,9.1c-4.7,2.1-10.4,3.2-17.1,3.2s-13.7-1.1-18.9-3.4-8.8-5.4-10.8-9.3-2.9-9.9-2.9-17.8v-4.6h25.7v6c0,5.1.3,8.4,1,10s1.9,2.3,3.8,2.3,3.5-.5,4.3-1.5c.8-1,1.2-3.2,1.2-6.5s-.5-7.4-1.6-8.5c-1.1-1.1-6.7-4.6-16.9-10.2-8.5-4.8-13.7-9.1-15.6-13s-2.8-8.5-2.8-13.9c0-7.6,1-13.2,3-16.8s5.4-6.4,10.2-8.4,10.4-2.9,16.8-2.9,11.7.8,16.1,2.4c4.4,1.6,7.8,3.7,10.2,6.4,2.4,2.6,3.8,5.1,4.3,7.3.5,2.2.8,5.8.8,10.6v5.5h0Z"/>
  <path class="st0" d="M328.9,56.5h-25.7v-5.2c0-4.4-.2-7.2-.8-8.4s-1.8-1.8-3.8-1.8-2.9.5-3.7,1.6-1.2,2.7-1.2,4.8.2,5.1.6,6.4c.4,1.4,1.6,2.9,3.7,4.5s6.2,4,12.5,7.1c8.4,4.1,14,8,16.6,11.6,2.6,3.6,4,8.9,4,15.9s-1,13.6-3,17.6-5.4,7-10.1,9.1c-4.7,2.1-10.4,3.2-17,3.2s-13.7-1.1-18.9-3.4-8.8-5.4-10.8-9.3-2.9-9.9-2.9-17.8v-4.6h25.7v6c0,5.1.3,8.4,1,10s1.9,2.3,3.8,2.3,3.5-.5,4.3-1.5c.8-1,1.2-3.2,1.2-6.5s-.5-7.4-1.6-8.5c-1.1-1.1-6.7-4.6-16.9-10.2-8.5-4.8-13.7-9.1-15.6-13s-2.8-8.5-2.8-13.9c0-7.6,1-13.2,3-16.8s5.4-6.4,10.2-8.4,10.4-2.9,16.8-2.9,11.7.8,16.1,2.4c4.4,1.6,7.8,3.7,10.2,6.4s3.8,5.1,4.3,7.3c.5,2.2.8,5.8.8,10.6v5.5h0Z"/>
  <path class="st0" d="M364.8,63h-27.2v-6.4c0-7.4.9-13.1,2.5-17.1,1.7-4,5.1-7.5,10.2-10.6,5.1-3.1,11.8-4.6,20-4.6s17.2,1.7,22.2,5.2c5,3.5,8,7.7,9,12.8,1,5.1,1.5,15.4,1.5,31.2v47.8h-28.2v-8.5c-1.8,3.4-4.1,6-6.9,7.7-2.8,1.7-6.1,2.6-10,2.6s-9.7-1.4-14-4.3c-4.2-2.9-6.4-9.1-6.4-18.7v-7.8c0-7.1,1.1-12,3.4-14.6s7.8-5.6,16.7-9c9.5-3.7,14.6-6.2,15.3-7.5.7-1.3,1-3.9,1-7.9s-.4-8.2-1.1-9.7-2-2.3-3.7-2.3-3.2.6-3.7,1.9c-.5,1.3-.7,4.6-.7,9.9v10h0ZM373.9,76c-4.6,3.4-7.3,6.2-8.1,8.5-.7,2.3-1.1,5.6-1.1,9.9s.3,8.1,1,9.6,1.9,2.1,3.8,2.1,3-.6,3.5-1.7c.5-1.1.8-4.1.8-8.9v-19.6h0Z"/>
  <path class="st0" d="M432.2,97.6v23.7h-21.9v-23.7h21.9,0Z"/>
  <path class="st0" d="M500,26.1l-13.6,95.2h-37.9l-14.6-95.2h25.9l8.2,69.6c.6-5.1,1.7-17.6,3.3-37.4.8-11.1,1.8-21.8,2.8-32.2h25.9Z"/>
  <path class="st0" d="M569.9,59.5v23.3c0,8.6-.4,14.9-1.3,18.8-.9,4-2.7,7.7-5.5,11.2-2.8,3.5-6.5,6-10.9,7.7-4.4,1.6-9.5,2.5-15.2,2.5s-11.8-.7-16.3-2.1c-4.5-1.4-7.9-3.5-10.4-6.4-2.5-2.9-4.2-6.3-5.3-10.3-1-4-1.6-10.1-1.6-18.2v-24.4c0-8.9,1-15.8,2.9-20.7,1.9-5,5.4-9,10.3-12,5-3,11.3-4.5,19.1-4.5s12.1,1,16.8,2.9,8.3,4.5,10.8,7.6c2.5,3.1,4.3,6.3,5.2,9.6.9,3.3,1.4,8.3,1.4,15.1h0ZM540.9,52.4c0-4.9-.3-8-.8-9.2-.5-1.3-1.7-1.9-3.4-1.9s-2.9.6-3.5,1.9c-.6,1.3-.9,4.3-.9,9.2v43c0,4.5.3,7.4.9,8.8s1.7,2.1,3.4,2.1,2.9-.6,3.4-1.9c.5-1.2.8-3.9.8-8v-43.9h0Z"/>
  <path class="st0" d="M609.3,5.1v116.2h-29.9V5.1h29.9Z"/>
  <path class="st0" d="M680.4,26.1l-8.3,68.9c-1.3,10.9-2.4,18.4-3.3,22.3-.9,4-2.4,7.2-4.4,9.8s-4.9,4.5-8.6,5.7c-3.7,1.2-9.5,1.8-17.5,1.8h-17.6v-15.2c4.5,0,7.4-.2,8.7-.7,1.3-.4,1.9-1.5,1.9-3.1s-.6-4.1-1.8-10l-15.9-79.7h26.3l9.5,64.3,4.7-64.3h26.2,0Z"/>
  <path class="st0" d="M711.5,63h-27.2v-6.4c0-7.4.8-13.1,2.5-17.1s5.1-7.5,10.2-10.6c5.1-3.1,11.8-4.6,20-4.6s17.2,1.7,22.2,5.2,8,7.7,9,12.8,1.5,15.4,1.5,31.2v47.8h-28.2v-8.5c-1.8,3.4-4.1,6-6.8,7.7-2.8,1.7-6.1,2.6-10,2.6s-9.7-1.4-14-4.3c-4.2-2.9-6.3-9.1-6.3-18.7v-7.8c0-7.1,1.1-12,3.4-14.6s7.8-5.6,16.7-9c9.5-3.7,14.6-6.2,15.3-7.5s1-3.9,1-7.9-.4-8.2-1.1-9.7-2-2.3-3.7-2.3-3.2.6-3.7,1.9c-.5,1.3-.7,4.6-.7,9.9v10h0ZM720.7,76c-4.6,3.4-7.3,6.2-8.1,8.5-.7,2.3-1.1,5.6-1.1,9.9s.3,8.1,1,9.6c.7,1.4,1.9,2.1,3.8,2.1s3-.6,3.5-1.7c.5-1.1.8-4.1.8-8.9v-19.6h0Z"/>
</svg>