<?xml version="1.0" encoding="UTF-8"?>
<svg id="_Слой_1" data-name="Слой_1" xmlns="http://www.w3.org/2000/svg" version="1.1" viewBox="0 0 800 400">
  <!-- Generator: Adobe Illustrator 29.1.0, SVG Export Plug-In . SVG Version: 2.1.0 Build 142)  -->
  <defs>
    <style>
      .st0 {
        fill: #fefefe;
        opacity: 0.4;
      }
    </style>
  </defs>
  <path class="st0" d="M71.75,176.97h-27.2v-6.39c0-7.37.85-13.05,2.55-17.05,1.7-4,5.11-7.52,10.23-10.59,5.12-3.06,11.77-4.59,19.95-4.59,9.81,0,17.2,1.73,22.18,5.2,4.98,3.47,7.97,7.73,8.97,12.78,1,5.05,1.51,15.44,1.51,31.19v47.8h-28.21v-8.49c-1.77,3.4-4.06,5.96-6.85,7.66-2.8,1.7-6.14,2.55-10.01,2.55-5.07,0-9.73-1.42-13.96-4.27-4.24-2.85-6.35-9.08-6.35-18.7v-7.82c0-7.13,1.12-11.99,3.37-14.57,2.25-2.58,7.82-5.6,16.72-9.04,9.52-3.73,14.62-6.24,15.29-7.54.67-1.29,1-3.92,1-7.9,0-4.98-.37-8.22-1.11-9.73-.74-1.51-1.97-2.26-3.7-2.26-1.96,0-3.18.63-3.66,1.9-.48,1.27-.72,4.56-.72,9.87v9.98ZM80.94,190.04c-4.64,3.4-7.33,6.24-8.07,8.54-.74,2.3-1.11,5.6-1.11,9.91,0,4.93.32,8.11.97,9.55.65,1.44,1.93,2.15,3.84,2.15s3-.56,3.55-1.69c.55-1.12.83-4.08.83-8.86v-19.6Z"/>
  <path class="st0" d="M149.78,119.12v116.21h-29.86v-116.21h29.86Z"/>
  <path class="st0" d="M190.04,119.12v15.15h-29.86v-15.15h29.86ZM190.04,140.08v95.25h-29.86v-95.25h29.86Z"/>
  <path class="st0" d="M259.67,170.51h-25.7v-5.17c0-4.4-.25-7.19-.75-8.36-.5-1.17-1.76-1.76-3.77-1.76-1.63,0-2.85.54-3.66,1.62-.81,1.08-1.22,2.69-1.22,4.84,0,2.92.2,5.06.61,6.42.41,1.36,1.63,2.86,3.66,4.49,2.03,1.63,6.21,4,12.53,7.11,8.42,4.12,13.95,7.99,16.58,11.63,2.63,3.64,3.95,8.93,3.95,15.86,0,7.75-1,13.6-3.01,17.55-2.01,3.95-5.37,6.99-10.08,9.12-4.71,2.13-10.4,3.19-17.05,3.19-7.37,0-13.67-1.15-18.91-3.45-5.24-2.3-8.84-5.41-10.8-9.33-1.96-3.92-2.94-9.86-2.94-17.8v-4.59h25.7v6.03c0,5.12.32,8.45.97,9.98.65,1.53,1.93,2.3,3.84,2.3,2.06,0,3.49-.51,4.31-1.54.81-1.03,1.22-3.19,1.22-6.5,0-4.55-.53-7.39-1.58-8.54-1.1-1.15-6.72-4.55-16.87-10.19-8.52-4.78-13.71-9.13-15.58-13.03-1.87-3.9-2.8-8.53-2.8-13.89,0-7.61,1-13.22,3.01-16.83,2.01-3.61,5.42-6.4,10.23-8.36,4.81-1.96,10.4-2.94,16.76-2.94s11.69.8,16.11,2.4c4.43,1.6,7.82,3.72,10.19,6.35,2.37,2.63,3.8,5.07,4.31,7.32.5,2.25.75,5.77.75,10.55v5.53Z"/>
  <path class="st0" d="M328.86,170.51h-25.7v-5.17c0-4.4-.25-7.19-.75-8.36-.5-1.17-1.76-1.76-3.77-1.76-1.63,0-2.85.54-3.66,1.62-.81,1.08-1.22,2.69-1.22,4.84,0,2.92.2,5.06.61,6.42.41,1.36,1.63,2.86,3.66,4.49,2.03,1.63,6.21,4,12.53,7.11,8.42,4.12,13.95,7.99,16.58,11.63,2.63,3.64,3.95,8.93,3.95,15.86,0,7.75-1,13.6-3.01,17.55-2.01,3.95-5.37,6.99-10.08,9.12-4.71,2.13-10.4,3.19-17.05,3.19-7.37,0-13.67-1.15-18.91-3.45-5.24-2.3-8.84-5.41-10.8-9.33-1.96-3.92-2.94-9.86-2.94-17.8v-4.59h25.7v6.03c0,5.12.32,8.45.97,9.98.65,1.53,1.93,2.3,3.84,2.3,2.06,0,3.49-.51,4.31-1.54.81-1.03,1.22-3.19,1.22-6.5,0-4.55-.53-7.39-1.58-8.54-1.1-1.15-6.72-4.55-16.87-10.19-8.52-4.78-13.71-9.13-15.58-13.03-1.87-3.9-2.8-8.53-2.8-13.89,0-7.61,1-13.22,3.01-16.83,2.01-3.61,5.42-6.4,10.23-8.36,4.81-1.96,10.4-2.94,16.76-2.94s11.69.8,16.11,2.4c4.43,1.6,7.82,3.72,10.19,6.35,2.37,2.63,3.8,5.07,4.31,7.32.5,2.25.75,5.77.75,10.55v5.53Z"/>
  <path class="st0" d="M364.75,176.97h-27.2v-6.39c0-7.37.85-13.05,2.55-17.05,1.7-4,5.11-7.52,10.23-10.59,5.12-3.06,11.77-4.59,19.95-4.59,9.81,0,17.2,1.73,22.18,5.2,4.98,3.47,7.97,7.73,8.97,12.78,1.01,5.05,1.51,15.44,1.51,31.19v47.8h-28.21v-8.49c-1.77,3.4-4.06,5.96-6.85,7.66-2.8,1.7-6.14,2.55-10.01,2.55-5.07,0-9.73-1.42-13.96-4.27-4.24-2.85-6.35-9.08-6.35-18.7v-7.82c0-7.13,1.12-11.99,3.37-14.57,2.25-2.58,7.82-5.6,16.72-9.04,9.52-3.73,14.62-6.24,15.29-7.54.67-1.29,1-3.92,1-7.9,0-4.98-.37-8.22-1.11-9.73-.74-1.51-1.97-2.26-3.7-2.26-1.96,0-3.18.63-3.66,1.9-.48,1.27-.72,4.56-.72,9.87v9.98ZM373.94,190.04c-4.64,3.4-7.33,6.24-8.07,8.54-.74,2.3-1.11,5.6-1.11,9.91,0,4.93.32,8.11.97,9.55.65,1.44,1.93,2.15,3.84,2.15s3-.56,3.55-1.69c.55-1.12.83-4.08.83-8.86v-19.6Z"/>
  <path class="st0" d="M432.22,211.64v23.69h-21.89v-23.69h21.89Z"/>
  <path class="st0" d="M500.05,140.08l-13.57,95.25h-37.9l-14.57-95.25h25.9l8.16,69.55c.64-5.12,1.73-17.58,3.27-37.38.82-11.06,1.76-21.78,2.81-32.17h25.89Z"/>
  <path class="st0" d="M569.89,173.53v23.33c0,8.57-.43,14.85-1.29,18.84-.86,4-2.7,7.73-5.53,11.2-2.82,3.47-6.45,6.03-10.87,7.68-4.43,1.65-9.51,2.48-15.25,2.48-6.41,0-11.84-.71-16.29-2.12-4.45-1.41-7.91-3.54-10.37-6.39-2.46-2.85-4.22-6.29-5.28-10.34-1.05-4.04-1.58-10.11-1.58-18.2v-24.4c0-8.85.96-15.77,2.87-20.74,1.91-4.98,5.36-8.97,10.34-11.99,4.98-3.01,11.34-4.52,19.09-4.52,6.51,0,12.09.97,16.76,2.91,4.67,1.94,8.27,4.46,10.8,7.57,2.54,3.11,4.27,6.32,5.2,9.62.93,3.3,1.4,8.33,1.4,15.07ZM540.89,166.35c0-4.88-.26-7.96-.79-9.22-.53-1.27-1.65-1.9-3.37-1.9s-2.87.63-3.45,1.9c-.57,1.27-.86,4.34-.86,9.22v42.99c0,4.5.29,7.43.86,8.79.57,1.36,1.7,2.05,3.37,2.05s2.86-.62,3.41-1.87c.55-1.24.83-3.92.83-8.04v-43.93Z"/>
  <path class="st0" d="M609.29,119.12v116.21h-29.86v-116.21h29.86Z"/>
  <path class="st0" d="M680.41,140.08l-8.29,68.91c-1.31,10.91-2.41,18.35-3.29,22.32-.89,3.97-2.36,7.25-4.41,9.83s-4.92,4.49-8.58,5.71c-3.66,1.22-9.51,1.83-17.55,1.83h-17.58v-15.22c4.5,0,7.41-.23,8.7-.68,1.29-.45,1.94-1.47,1.94-3.05,0-.76-.6-4.09-1.8-9.98l-15.88-79.67h26.32l9.53,64.31,4.65-64.31h26.24Z"/>
  <path class="st0" d="M711.51,176.97h-27.2v-6.39c0-7.37.85-13.05,2.55-17.05,1.7-4,5.11-7.52,10.23-10.59,5.12-3.06,11.77-4.59,19.95-4.59,9.81,0,17.2,1.73,22.18,5.2,4.98,3.47,7.97,7.73,8.97,12.78,1,5.05,1.51,15.44,1.51,31.19v47.8h-28.21v-8.49c-1.77,3.4-4.06,5.96-6.85,7.66-2.8,1.7-6.14,2.55-10.01,2.55-5.07,0-9.73-1.42-13.96-4.27-4.24-2.85-6.35-9.08-6.35-18.7v-7.82c0-7.13,1.12-11.99,3.37-14.57,2.25-2.58,7.82-5.6,16.72-9.04,9.52-3.73,14.62-6.24,15.29-7.54s1.01-3.92,1.01-7.9c0-4.98-.37-8.22-1.11-9.73-.74-1.51-1.97-2.26-3.7-2.26-1.96,0-3.18.63-3.66,1.9-.48,1.27-.72,4.56-.72,9.87v9.98ZM720.69,190.04c-4.64,3.4-7.33,6.24-8.08,8.54-.74,2.3-1.11,5.6-1.11,9.91,0,4.93.32,8.11.97,9.55.65,1.44,1.93,2.15,3.84,2.15s3-.56,3.55-1.69c.55-1.12.83-4.08.83-8.86v-19.6Z"/>
</svg>