<?xml version="1.0" standalone="no"?>
<!DOCTYPE svg PUBLIC "-//W3C//DTD SVG 20010904//EN"
 "http://www.w3.org/TR/2001/REC-SVG-20010904/DTD/svg10.dtd">
<svg version="1.0" xmlns="http://www.w3.org/2000/svg"
 width="671.000000pt" height="390.000000pt" viewBox="0 0 671.000000 390.000000"
 preserveAspectRatio="xMidYMid meet">

<g transform="translate(0.000000,390.000000) scale(0.100000,-0.100000)"
fill="#000000" stroke="none">
<path d="M5010 3806 c-243 -101 -930 -479 -1001 -550 -41 -41 -191 -365 -248
-539 -13 -38 -25 -66 -28 -64 -4 5 64 310 98 436 11 40 18 76 15 78 -5 6 -396
-308 -526 -422 -113 -100 -254 -242 -312 -315 -52 -67 -79 -160 -138 -495 -18
-99 -34 -182 -37 -185 -9 -9 5 372 17 439 6 35 9 66 6 68 -9 9 -96 -91 -151
-172 -30 -45 -69 -112 -87 -150 l-33 -70 0 -170 c0 -93 4 -186 8 -205 5 -22 4
-31 -2 -25 -14 14 -61 255 -61 310 0 26 -4 44 -9 41 -12 -8 -66 -147 -86 -221
-20 -73 -31 -354 -17 -438 l9 -57 -114 -191 c-202 -337 -436 -809 -401 -809
11 0 228 43 353 69 574 123 855 178 1205 237 91 15 169 30 173 34 8 7 -92 6
-328 -5 -262 -12 -632 -65 -850 -122 -118 -31 -354 -117 -442 -162 -34 -17
-67 -31 -73 -31 -17 0 204 210 258 246 26 18 74 46 107 64 80 43 77 39 150
150 83 125 175 253 187 261 5 3 55 9 111 12 58 4 143 18 197 32 91 25 135 45
97 45 -23 0 -209 69 -222 82 -7 7 -3 8 10 4 58 -17 305 -46 345 -41 42 6 216
69 233 84 7 7 -386 52 -446 51 -16 0 -26 4 -23 8 3 5 85 12 183 15 190 7 338
26 419 52 142 47 346 178 459 294 l50 51 -367 -2 c-202 -2 -364 0 -360 3 9 8
227 40 542 79 135 16 261 35 282 40 26 7 59 34 117 96 45 48 80 88 78 90 -2 2
-65 -5 -141 -17 -76 -11 -188 -26 -249 -34 -62 -8 -157 -21 -212 -29 -55 -9
-111 -16 -125 -15 -28 1 280 77 515 128 257 56 293 69 327 115 90 123 342 586
320 586 -16 0 -253 -28 -417 -50 -82 -10 -151 -17 -153 -15 -4 4 68 25 153 44
28 6 133 31 235 56 171 42 187 47 213 77 35 40 121 177 115 183 -4 4 -437 -60
-487 -72 -14 -3 -23 -3 -20 0 3 4 91 34 196 67 239 75 296 96 315 118 49 56
127 406 144 644 6 97 -1 208 -14 208 -4 -1 -32 -11 -62 -24z m-381 -608 c-29
-35 -301 -313 -604 -618 -671 -676 -862 -878 -1126 -1190 -155 -184 -641 -787
-657 -816 -6 -10 -13 -17 -15 -14 -6 6 164 287 244 406 237 351 772 957 1255
1420 181 174 256 243 529 488 49 45 162 149 250 233 88 84 164 152 168 152 5
1 -15 -27 -44 -61z"/>
<path d="M1164 2668 c-33 -29 -168 -143 -299 -253 -408 -342 -809 -684 -813
-696 -3 -6 214 -189 1018 -861 l105 -88 233 0 c127 0 232 3 231 8 -1 4 -63 66
-138 137 -75 72 -272 258 -436 415 -165 157 -327 311 -360 342 l-60 57 493
486 c270 268 492 491 492 496 0 5 -87 9 -203 9 l-202 0 -61 -52z"/>
<path d="M5052 2712 c4 -12 484 -479 773 -753 l247 -234 -111 -105 c-249 -234
-869 -836 -870 -842 -1 -5 100 -8 223 -8 l224 0 148 122 c82 67 230 189 329
272 98 83 194 162 211 176 91 72 444 372 444 378 0 7 -160 141 -840 701 l-365
300 -208 1 c-115 0 -207 -4 -205 -8z"/>
</g>
</svg>
